# xmcd CD database file generated by Grip 2.96
# 
# Track frame offsets:
#       150
#       7439
#       19359
#       38005
#       51749
#       59650
#       68094
#       74819
#       78031
# 
# Disc length: 1180 seconds
# 
# Revision: 0
# Processed by: cddbd v1.4PL0 Copyright (c) Steve Scherf et al.
# Submitted via: Grip 2.96
# 
DISCID=88049a09
DTITLE=The Farm Beetles - Meat The Farm Beetles
DYEAR=1900
DGENRE=
TTITLE0=Yisterdie
TTITLE1=Hilter Skilter
TTITLE2=Strowburry Fields
TTITLE3=A Day In The Laff
TTITLE4=Imagin'
TTITLE5=Within Ya, Without Ya
TTITLE6=Bertday
TTITLE7=Ravolution # Niner
TTITLE8='n In The Ind
EXTD=
EXTT0=
EXTT1=
EXTT2=
EXTT3=
EXTT4=
EXTT5=
EXTT6=
EXTT7=
EXTT8=
PLAYORDER=
